<?xml version="1.0" encoding="iso-8859-1"?>
<!-- Uploaded to: SVG Repo, www.svgrepo.com, Generator: SVG Repo Mixer Tools -->
<svg height="800px" width="800px" version="1.1" id="Layer_1" xmlns="http://www.w3.org/2000/svg" xmlns:xlink="http://www.w3.org/1999/xlink" 
	 viewBox="0 0 464.8 464.8" xml:space="preserve">
<path style="fill:#D10257;" d="M456,424.4c0,17.6-14.4,32-32,32H48c-17.6,0-32-14.4-32-32v-376c0-17.6,14.4-32,32-32h376
	c17.6,0,32,14.4,32,32V424.4z"/>
<path style="fill:#B20B5F;" d="M13.6,46.8c0-17.6,14.4-30.4,32-30.4h373.6c16.8,0,28.8,12,28.8,29.6v373.6
	c0,17.6-12.8,32.8-30.4,32.8"/>
<g>
	<path style="fill:#9E1B57;" d="M418.4,464.4H45.6c-24,0-45.6-20.8-45.6-45.6V46C0,22,20.8,0.4,45.6,0.4h373.6
		c24,0,45.6,20.8,45.6,45.6v373.6C464,443.6,443.2,464.4,418.4,464.4z M440,44.4c0-11.2-8.8-20-20-20H44c-11.2,0-20,8.8-20,20v376
		c0,11.2,8.8,20,20,20h376c11.2,0,20-8.8,20-20V44.4z"/>
	<path style="fill:#9E1B57;" d="M164,229.2c-18.4-7.2-22.4-12-22.4-19.2c0-5.6,4.8-12.8,18.4-12.8c9.6,0,17.6,3.2,22.4,5.6
		c1.6,0.8,4,0.8,5.6,0s3.2-2.4,4-4l4.8-14.4c0.8-3.2,0-6.4-3.2-8.8c-4.8-2.4-16-7.2-32.8-7.2c-28.8,0-50.4,18.4-50.4,43.2
		c0,20.8,12.8,35.2,40,44.8c17.6,6.4,20.8,12,20.8,20c0,9.6-8,16-20.8,16c-9.6,0-19.2-3.2-27.2-8c-1.6-0.8-4-1.6-6.4-0.8
		c-2.4,0.8-4,2.4-4,4.8l-4,14.4c-0.8,3.2,0,6.4,3.2,8c8.8,5.6,24,9.6,38.4,9.6c37.6,0,53.6-23.2,53.6-45.6
		C203.2,247.6,182.4,235.6,164,229.2z"/>
	<path style="fill:#9E1B57;" d="M335.2,188.4C321.6,175.6,302.4,170,276,170c-12.8,0-25.6,0.8-37.6,3.2c-3.2,0.8-6.4,3.2-6.4,7.2
		v131.2c0,3.2,3.2,6.4,6.4,7.2c9.6,0.8,20.8,1.6,32,1.6c28,0,50.4-7.2,64-21.6C348,285.2,356,265.2,356,242
		C356,218.8,348.8,201.2,335.2,188.4z M324,242c0,32.8-16.8,49.6-49.6,49.6c-3.2,0-10.4,0-10.4,0V198c0,0,7.2-0.8,12.8-0.8
		c16,0,28,4,36,12C320,217.2,324,227.6,324,242z"/>
</g>
<path style="fill:#51CE00;" d="M164,217.2c-18.4-7.2-22.4-12-22.4-19.2c0-5.6,4.8-12.8,18.4-12.8c9.6,0,17.6,3.2,22.4,5.6
	c1.6,0.8,4,0.8,5.6,0s3.2-2.4,4-4l4.8-14.4c0.8-3.2,0-6.4-3.2-8.8c-4.8-2.4-16-7.2-32.8-7.2c-28.8,0-50.4,18.4-50.4,43.2
	c0,20.8,12.8,35.2,40,44.8c17.6,6.4,20.8,12,20.8,20c0,9.6-8,16-20.8,16c-9.6,0-19.2-3.2-27.2-8c-1.6-0.8-4-1.6-6.4-0.8
	c-2.4,0.8-4,2.4-4,4.8l-4,14.4c-0.8,3.2,0,6.4,3.2,8c8.8,5.6,24,9.6,38.4,9.6c37.6,0,53.6-23.2,53.6-45.6
	C203.2,235.6,182.4,223.6,164,217.2z"/>
<path style="fill:#35BA04;" d="M194.4,163.6c-4.8-2.4-16-7.2-32.8-7.2c-11.2,0-21.6,2.4-29.6,7.2l21.6,21.6c2.4-0.8,4-0.8,7.2-0.8
	c9.6,0,17.6,3.2,22.4,5.6c1.6,0.8,4,0.8,5.6,0s3.2-2.4,4-4l4.8-14.4C198.4,169.2,196.8,165.2,194.4,163.6z"/>
<path style="fill:#51CE00;" d="M335.2,176.4C321.6,163.6,302.4,158,276,158c-12.8,0-25.6,0.8-37.6,3.2c-3.2,0.8-6.4,3.2-6.4,7.2
	v131.2c0,3.2,3.2,6.4,6.4,7.2c9.6,0.8,20.8,1.6,32,1.6c28,0,50.4-7.2,64-21.6C348,273.2,356,253.2,356,230
	C356,206.8,348.8,189.2,335.2,176.4z M324,230c0,32.8-16.8,49.6-49.6,49.6c-3.2,0-10.4,0-10.4,0V186c0,0,7.2-0.8,12.8-0.8
	c16,0,28,4,36,12C320,205.2,324,215.6,324,230z"/>
<path style="fill:#35BA04;" d="M276,157.2c-12.8,0-25.6,0.8-37.6,3.2c-3.2,0.8-6.4,3.2-6.4,7.2v97.6l43.2,43.2
	c25.6-0.8,46.4-8,60-20.8c13.6-13.6,21.6-33.6,21.6-56.8c0-22.4-7.2-40-20.8-53.6C321.6,163.6,302.4,157.2,276,157.2z M274.4,279.6
	c-3.2,0-10.4,0-10.4,0V186c0,0,7.2-0.8,12.8-0.8c16,0,28,4,36,12c7.2,7.2,11.2,18.4,11.2,32.8C324,262.8,307.2,279.6,274.4,279.6z"
	/>
</svg>